# xmcd CD database file
#
# Track frame offsets:
#	150
#	20553
#	44403
#	63528
#	85444
#	110775
#	126529
#	151802
#	183977
#
# Disc length: 2671 seconds
#
# Revision: 0
# Processed by: cddbd v1.5.2PL0 Copyright (c) Steve Scherf et al.
# Submitted via: CDex 1.50beta10
#
DISCID=7f0a6d09
DTITLE=transcription of organ music - songs from the great lake
DYEAR=2009
DGENRE=Country
TTITLE0=i am the ocean
TTITLE1=it's time to rest now, the fire should last the night and the rain is bucketing down outside
TTITLE2=better to know
TTITLE3=by the banks of wild dog creek
TTITLE4=don't fall into the fire!
TTITLE5=the custom of the sea
TTITLE6=one day, everything you see here will be ruins
TTITLE7=the ocean boewl
TTITLE8=endless night
EXTD=YEAR: 2009
EXTT0=
EXTT1=
EXTT2=
EXTT3=
EXTT4=
EXTT5=
EXTT6=
EXTT7=
EXTT8=
PLAYORDER=
